<svg xmlns="http://www.w3.org/2000/svg" viewBox="0 0 153.4 194.2"><path d="M77.5.1l-.8-.1L0 8v140.6l76.7 45.6 76.7-45.6V8L77.5.1zm65.9 142.8l-66.7 39.6L10 142.8V85.2l66.4 39.5.1 7.2L31 104.8l-.1 7 45.7 27.5.1 7.3L31 119.4l-.1 7 45.7 27.5 46.2-27.6v-7h-.1V96.5l20.6-12.3.1 58.7h0zm-.1-66.1l-18.2 10.7-8.4 5-40.1-23.9-.1 7L110.8 96l-.3.2-.7.4-4.9 2.9-28.3-16.9-.1 7 22.4 13.3-5.3 3.5-.1.1-16.9-10-.1 7 11.1 6.5-11.3 6.8-66-39.3 66.1-39.8h0l66.9 39.1zm.1-7l-67-39.5h0L10.1 69.8V17.1l66.7-7 66.7 7v52.7h-.1z" stroke="#231f20" stroke-miterlimit="10"/></svg>